<svg height="511pt" viewBox="-56 1 511 511.999" width="511pt" xmlns="http://www.w3.org/2000/svg"><path d="m377.730469 389.710938h-32.890625v66.855468h32.890625c11.914062 0 21.664062-9.75 21.664062-21.664062v-23.527344c0-11.914062-9.75-21.664062-21.664062-21.664062zm0 0" fill="#ce7132"/><path d="m378.835938 456.511719v-66.746094c-.367188-.019531-.730469-.054687-1.105469-.054687h-32.890625v66.855468h32.890625c.375 0 .738281-.039062 1.105469-.054687zm0 0" fill="#b75f23"/><path d="m377.730469 322.855469h-32.890625v66.855469h32.890625c11.914062 0 21.664062-9.75 21.664062-21.664063v-23.527344c0-11.914062-9.75-21.664062-21.664062-21.664062zm0 0" fill="#e4eaf8"/><path d="m378.835938 389.65625v-66.746094c-.367188-.015625-.730469-.054687-1.105469-.054687h-32.890625v66.855469h32.890625c.375 0 .738281-.035157 1.105469-.054688zm0 0" fill="#c7d2e5"/><path d="m377.730469 256h-32.890625v66.855469h32.890625c11.914062 0 21.664062-9.75 21.664062-21.664063v-23.527344c0-11.917968-9.75-21.664062-21.664062-21.664062zm0 0" fill="#1dd1a1"/><path d="m378.835938 322.800781v-66.746093c-.367188-.019532-.730469-.054688-1.105469-.054688h-32.890625v66.855469h32.890625c.375 0 .738281-.039063 1.105469-.054688zm0 0" fill="#15ba8b"/><path d="m377.730469 189.144531h-32.890625v66.855469h32.890625c11.914062 0 21.664062-9.746094 21.664062-21.664062v-23.527344c0-11.914063-9.75-21.664063-21.664062-21.664063zm0 0" fill="#54a0ff"/><path d="m378.835938 255.945312v-66.746093c-.367188-.015625-.730469-.054688-1.105469-.054688h-32.890625v66.855469h32.890625c.375 0 .738281-.035156 1.105469-.054688zm0 0" fill="#338def"/><path d="m377.730469 122.289062h-32.890625v66.855469h32.890625c11.914062 0 21.664062-9.75 21.664062-21.664062v-23.527344c0-11.917969-9.75-21.664063-21.664062-21.664063zm0 0" fill="#feca57"/><path d="m378.835938 189.089844v-66.746094c-.367188-.019531-.730469-.054688-1.105469-.054688h-32.890625v66.855469h32.890625c.375 0 .738281-.039062 1.105469-.054687zm0 0" fill="#f4b537"/><path d="m377.730469 55.433594h-32.890625v66.855468h32.890625c11.914062 0 21.664062-9.75 21.664062-21.664062v-23.527344c0-11.914062-9.75-21.664062-21.664062-21.664062zm0 0" fill="#ff6b6b"/><path d="m378.835938 122.234375v-66.746094c-.367188-.015625-.730469-.054687-1.105469-.054687h-32.890625v66.855468h32.890625c.375 0 .738281-.035156 1.105469-.054687zm0 0" fill="#ee5253"/><path d="m335.152344 0h-292.316406c-7.027344 0-12.777344 5.75-12.777344 12.777344v486.441406c0 7.03125 5.75 12.78125 12.777344 12.78125h292.316406c7.027344 0 12.777344-5.753906 12.777344-12.78125v-486.441406c0-7.027344-5.75-12.777344-12.777344-12.777344zm0 0" fill="#576574"/><path d="m60.964844 499.21875v-486.441406c0-7.027344 5.75-12.777344 12.78125-12.777344h-30.910156c-7.027344 0-12.777344 5.75-12.777344 12.777344v486.441406c0 7.03125 5.75 12.78125 12.777344 12.78125h30.910156c-7.03125 0-12.78125-5.75-12.78125-12.78125zm0 0" fill="#3e4b5a"/><path d="m283.890625 194.902344c0 52.410156-42.488281 94.898437-94.898437 94.898437-52.410157 0-94.898438-42.488281-94.898438-94.898437s42.488281-94.898438 94.898438-94.898438c52.410156 0 94.898437 42.488282 94.898437 94.898438zm0 0" fill="#3e4b5a"/><path d="m125.003906 194.902344c0-47.148438 34.382813-86.257813 79.445313-93.640625-5.03125-.824219-10.191407-1.257813-15.457031-1.257813-52.410157 0-94.898438 42.488282-94.898438 94.898438s42.488281 94.898437 94.898438 94.898437c5.265624 0 10.425781-.4375 15.457031-1.261719-45.0625-7.378906-79.445313-46.488281-79.445313-93.636718zm0 0" fill="#313f4c"/><path d="m224.015625 170.046875c0 19.34375-15.679687 35.023437-35.023437 35.023437-19.339844 0-35.019532-15.679687-35.019532-35.023437s15.679688-35.023437 35.019532-35.023437c19.34375 0 35.023437 15.679687 35.023437 35.023437zm0 0" fill="#ffcdbf"/><path d="m184.878906 170.046875c0-13.792969 7.980469-25.71875 19.570313-31.429687-4.664063-2.296876-9.90625-3.59375-15.457031-3.59375-19.339844 0-35.019532 15.679687-35.019532 35.023437s15.679688 35.023437 35.019532 35.023437c5.550781 0 10.792968-1.296874 15.457031-3.59375-11.589844-5.710937-19.570313-17.636718-19.570313-31.429687zm0 0" fill="#ffbeab"/><path d="m224.464844 231.585938h-70.941406c-11.28125 0-20.511719 9.226562-20.511719 20.507812v19.433594c15.695312 11.488281 35.042969 18.273437 55.980469 18.273437s40.289062-6.785156 55.980468-18.273437v-19.433594c0-11.28125-9.226562-20.507812-20.507812-20.507812zm0 0" fill="#ff6b6b"/><path d="m204.449219 288.539062c-29.273438-4.792968-54.027344-22.984374-67.789063-48.066406-2.292968 3.308594-3.648437 7.3125-3.648437 11.621094v19.4375c6.921875 5.0625 14.453125 9.15625 22.652343 12.246094 15.28125 5.734375 32.125 7.492187 48.785157 4.761718zm0 0" fill="#ee5253"/><g fill="#e4eaf8"><path d="m51.890625 47.707031h-43.664063c-4.265624 0-7.726562 3.457031-7.726562 7.726563 0 4.269531 3.457031 7.726562 7.726562 7.726562h43.664063c4.265625 0 7.726563-3.457031 7.726563-7.726562 0-4.269532-3.460938-7.726563-7.726563-7.726563zm0 0"/><path d="m51.890625 92.277344h-43.664063c-4.265624 0-7.726562 3.457031-7.726562 7.726562 0 4.265625 3.457031 7.726563 7.726562 7.726563h43.664063c4.265625 0 7.726563-3.457031 7.726563-7.726563 0-4.269531-3.460938-7.726562-7.726563-7.726562zm0 0"/><path d="m51.890625 136.847656h-43.664063c-4.265624 0-7.726562 3.460938-7.726562 7.726563 0 4.269531 3.457031 7.726562 7.726562 7.726562h43.664063c4.265625 0 7.726563-3.457031 7.726563-7.726562 0-4.265625-3.460938-7.726563-7.726563-7.726563zm0 0"/><path d="m51.890625 181.417969h-43.664063c-4.265624 0-7.726562 3.460937-7.726562 7.726562s3.457031 7.726563 7.726562 7.726563h43.664063c4.265625 0 7.726563-3.457032 7.726563-7.726563 0-4.265625-3.460938-7.726562-7.726563-7.726562zm0 0"/><path d="m51.890625 225.988281h-43.664063c-4.265624 0-7.726562 3.457031-7.726562 7.726563 0 4.265625 3.457031 7.726562 7.726562 7.726562h43.664063c4.265625 0 7.726563-3.457031 7.726563-7.726562 0-4.265625-3.460938-7.726563-7.726563-7.726563zm0 0"/><path d="m51.890625 270.558594h-43.664063c-4.265624 0-7.726562 3.457031-7.726562 7.726562 0 4.265625 3.457031 7.726563 7.726562 7.726563h43.664063c4.265625 0 7.726563-3.457031 7.726563-7.726563 0-4.265625-3.460938-7.726562-7.726563-7.726562zm0 0"/><path d="m51.890625 315.128906h-43.664063c-4.265624 0-7.726562 3.457032-7.726562 7.726563 0 4.265625 3.457031 7.726562 7.726562 7.726562h43.664063c4.265625 0 7.726563-3.460937 7.726563-7.726562 0-4.269531-3.460938-7.726563-7.726563-7.726563zm0 0"/><path d="m51.890625 359.699219h-43.664063c-4.265624 0-7.726562 3.457031-7.726562 7.726562s3.457031 7.726563 7.726562 7.726563h43.664063c4.265625 0 7.726563-3.457032 7.726563-7.726563s-3.460938-7.726562-7.726563-7.726562zm0 0"/><path d="m51.890625 404.269531h-43.664063c-4.265624 0-7.726562 3.457031-7.726562 7.726563 0 4.265625 3.457031 7.726562 7.726562 7.726562h43.664063c4.265625 0 7.726563-3.457031 7.726563-7.726562 0-4.265625-3.460938-7.726563-7.726563-7.726563zm0 0"/><path d="m51.890625 448.839844h-43.664063c-4.265624 0-7.726562 3.460937-7.726562 7.726562 0 4.269532 3.457031 7.726563 7.726562 7.726563h43.664063c4.265625 0 7.726563-3.457031 7.726563-7.726563 0-4.265625-3.460938-7.726562-7.726563-7.726562zm0 0"/></g><path d="m231.324219 347.09375c4.269531 0 7.726562-3.457031 7.726562-7.726562 0-4.269532-3.457031-7.726563-7.726562-7.726563h-84.664063c-4.265625 0-7.726562 3.457031-7.726562 7.726563 0 4.269531 3.460937 7.726562 7.726562 7.726562zm0 0" fill="#3e4b5a"/><path d="m273.65625 365.203125h-169.324219c-4.269531 0-7.730469 3.457031-7.730469 7.726563 0 4.265624 3.460938 7.726562 7.730469 7.726562h169.328125c4.265625 0 7.726563-3.457031 7.726563-7.726562-.003907-4.269532-3.460938-7.726563-7.730469-7.726563zm0 0" fill="#3e4b5a"/><path d="m273.65625 398.765625h-169.324219c-4.269531 0-7.730469 3.457031-7.730469 7.726563 0 4.265624 3.460938 7.726562 7.730469 7.726562h169.328125c4.265625 0 7.726563-3.457031 7.726563-7.726562-.003907-4.265626-3.460938-7.726563-7.730469-7.726563zm0 0" fill="#3e4b5a"/><path d="m281.382812 440.054688c0-4.265626-3.457031-7.726563-7.726562-7.726563h-169.324219c-4.269531 0-7.730469 3.457031-7.730469 7.726563 0 4.265624 3.460938 7.726562 7.730469 7.726562h169.328125c4.265625 0 7.722656-3.460938 7.722656-7.726562zm0 0" fill="#3e4b5a"/></svg>